<svg xmlns="http://www.w3.org/2000/svg" viewBox="0 0 32 32" role="img" aria-label="ContentFy">
  <rect width="32" height="32" rx="8" fill="#F97316"/>
  <g transform="translate(2.8,1.8) scale(0.41)">
    <path fill="#070B12" d="M19.2 4.8 15.1 13.6C11.4 16.2 9 20.6 9 25.6v6.4c0 2.8 1 5.4 2.8 7.4l-1.2 1.6C9.2 43.2 8.4 46 8.4 49c0 4.4 3.2 8 7.8 9.2l6.2 1.6c2.1.55 4.3.8 6.6.8h2c2.3 0 4.5-.25 6.6-.8l6.2-1.6c4.6-1.2 7.8-4.8 7.8-9.2 0-3-.8-5.8-2.2-8.2l-1.2-1.6c1.8-2 2.8-4.6 2.8-7.4v-6.4c0-5-2.4-9.4-6.1-12L44.8 4.8l-5.4 2.2-2.2 5.2H26.8l-2.2-5.2-5.4-2.2z"/>
    <circle cx="23.5" cy="27.8" r="7.4" fill="#F8FAFC"/>
    <circle cx="40.5" cy="27.8" r="7.4" fill="#F8FAFC"/>
    <circle cx="23.5" cy="27.8" r="4.2" fill="#070B12"/>
    <circle cx="40.5" cy="27.8" r="4.2" fill="#070B12"/>
    <circle cx="23.5" cy="27.8" r="1.9" fill="#F59E0B"/>
    <circle cx="40.5" cy="27.8" r="1.9" fill="#F59E0B"/>
    <path fill="#E2E8F0" d="M32 32.8 28.4 39.4h7.2L32 32.8z"/>
  </g>
</svg>
