<svg xmlns="http://www.w3.org/2000/svg" viewBox="0 0 32 32" role="img" aria-label="ContentFy">
  <path fill="#F8FAFC" fill-rule="evenodd" d="M8.5 1.8 L6.6 6.6 C5 8.8 4.2 11.4 4.2 14 V17.2 C4.2 19.2 4.9 21 6.1 22.4 L5.2 24.2 C4.6 25.4 4.4 26.6 4.4 27.6 C4.4 29.4 5.9 30.6 7.8 30.8 L12.4 31.4 H19.6 L24.2 30.8 C26.1 30.6 27.6 29.4 27.6 27.6 C27.6 26.6 27.4 25.4 26.8 24.2 L25.9 22.4 C27.1 21 27.8 19.2 27.8 17.2 V14 C27.8 11.4 27 8.8 25.4 6.6 L23.5 1.8 L20.4 3.2 L19 6.6 H13 L11.6 3.2 Z
  M7.55 13.6 A5.25 5.25 0 1 0 18.05 13.6 A5.25 5.25 0 1 0 7.55 13.6 Z
  M8.85 13.6 A3.95 3.95 0 1 0 16.75 13.6 A3.95 3.95 0 1 0 8.85 13.6 Z
  M13.95 13.6 A5.25 5.25 0 1 0 24.45 13.6 A5.25 5.25 0 1 0 13.95 13.6 Z
  M15.25 13.6 A3.95 3.95 0 1 0 23.15 13.6 A3.95 3.95 0 1 0 15.25 13.6 Z
  M16 16.5 L14.7 24.3 H17.3 Z"/>
</svg>
