<svg xmlns="http://www.w3.org/2000/svg" viewBox="0 0 64 64" role="img" aria-label="P3 Twin Pane">
  <!--
    P3 v2 · Twin Pane
    Dois painéis verticais (arquitetura) com ombros arredondados
    Notch superior mais “dobra” e menos “VR”
    Aberturas + cunha = descoberta da coruja em poucos segundos
  -->
  <path
    fill="currentColor"
    fill-rule="evenodd"
    d="M10 14c0-2.8 2.2-5 5-5h9.5c1.2 0 2.3.55 3 1.5L32 16.2l4.5-5.7c.7-.95 1.8-1.5 3-1.5H49c2.8 0 5 2.2 5 5v32c0 2.8-2.2 5-5 5h-9.5c-1.2 0-2.3-.55-3-1.5L32 43.8l-4.5 5.7c-.7.95-1.8 1.5-3 1.5H15c-2.8 0-5-2.2-5-5V14z
    M15.5 30 A5.8 5.8 0 1 0 27.1 30 A5.8 5.8 0 1 0 15.5 30 z
    M36.9 30 A5.8 5.8 0 1 0 48.5 30 A5.8 5.8 0 1 0 36.9 30 z
    M32 35.2 L29.2 40.4 H34.8 Z"
  />
</svg>
