<svg xmlns="http://www.w3.org/2000/svg" viewBox="0 0 160 186" role="img" aria-label="Safe area">
  <rect width="160" height="186" fill="#F8FAFC"/>
  <rect x="16" y="16" width="128" height="154" fill="none" stroke="#F97316" stroke-dasharray="4 3" stroke-width="1.2"/>
  <g transform="translate(16,16)">
    <path fill="#111827" d="M5 4 C3.5 16 2.2 30 2 46 V71 C2 85.5 7 98 16 107.5 L10.5 116 C6 123.5 3.8 130.5 3.8 136.5 C3.8 143.5 13 147.5 27 148.5 H101 C115 147.5 124.2 143.5 124.2 136.5 C124.2 130.5 122 123.5 117.5 116 L112 107.5 C121 98 126 85.5 126 71 V46 C125.8 30 124.5 16 123 4 L105 12.5 C100.5 18.5 98 24.5 96.5 31.5 H31.5 C30 24.5 27.5 18.5 23 12.5 Z"/>
    <circle cx="34" cy="58" r="18" fill="#F97316"/>
    <circle cx="94" cy="58" r="18" fill="#F97316"/>
    <circle cx="34" cy="58" r="12" fill="#070B12"/>
    <circle cx="94" cy="58" r="12" fill="#070B12"/>
    <circle cx="34" cy="58" r="3.8" fill="#F59E0B"/>
    <circle cx="94" cy="58" r="3.8" fill="#F59E0B"/>
  </g>
  <text x="80" y="12" text-anchor="middle" font-family="Segoe UI,system-ui" font-size="7" fill="#EA580C">SAFE AREA LOCKED · V1.0</text>
</svg>
